# xmcd
# 
# Track frame offsets:
#     150
#     19673
#     43975
#     71798
#     86435
#     98823
#     126608
#     144060
#     157873
#     174753
#     193098
#     207023
# 
# Disc length: 3116
# 
# Revision: 5
# Processed by: cddbd v1.5.2PL0 Copyright (c) Steve Scherf et al.
# Submitted via: BonkEnc v1.0.6
# 
DISCID=9c0c2a0c
DTITLE=Tinsley Ellis - Storm Warning
DYEAR=1994
DGENRE=Blues Rock
TTITLE0=To The Devil For A Dime
TTITLE1=Cut You Loose
TTITLE2=A Quitter Never Wins
TTITLE3=Panhead
TTITLE4=The Next Miss Wrong
TTITLE5=Early In The Morning
TTITLE6=When I Howl
TTITLE7=Side Tracked
TTITLE8=Wanted Man
TTITLE9=The Sun Is Shining
TTITLE10=Bush Doctor
TTITLE11=Mercy Mercy Mercy
EXTD=
EXTT0=
EXTT1=
EXTT2=
EXTT3=
EXTT4=
EXTT5=
EXTT6=
EXTT7=
EXTT8=
EXTT9=
EXTT10=
EXTT11=
PLAYORDER=
